<svg version="1.1" viewBox="0.0 0.0 960.0 720.0" fill="none" stroke="none" stroke-linecap="square" stroke-miterlimit="10" xmlns:xlink="http://www.w3.org/1999/xlink" xmlns="http://www.w3.org/2000/svg"><clipPath id="p.0"><path d="m0 0l960.0 0l0 720.0l-960.0 0l0 -720.0z" clip-rule="nonzero"/></clipPath><g clip-path="url(#p.0)"><path fill="#000000" fill-opacity="0.0" d="m0 0l960.0 0l0 720.0l-960.0 0z" fill-rule="evenodd"/><g filter="url(#shadowFilter-p.1)"><use xlink:href="#p.1" transform="matrix(1.0 0.0 0.0 1.0 0.0 2.0)"/></g><defs><filter id="shadowFilter-p.1" filterUnits="userSpaceOnUse"><feGaussianBlur in="SourceAlpha" stdDeviation="2.0" result="blur"/><feComponentTransfer in="blur" color-interpolation-filters="sRGB"><feFuncR type="linear" slope="0" intercept="0.0"/><feFuncG type="linear" slope="0" intercept="0.0"/><feFuncB type="linear" slope="0" intercept="0.0"/><feFuncA type="linear" slope="0.5" intercept="0"/></feComponentTransfer></filter></defs><g id="p.1"><path fill="#0000ff" d="m354.5958 336.46982l0 0c0 -74.86719 60.93863 -135.55905 136.11023 -135.55905l0 0c36.098663 0 70.71884 14.282074 96.24448 39.704315c25.525635 25.422272 39.865784 59.902252 39.865784 95.85474l0 0c0 74.86719 -60.93866 135.55905 -136.11026 135.55905l0 0c-75.1716 0 -136.11023 -60.691864 -136.11023 -135.55905z" fill-rule="evenodd"/></g><path fill="#000000" fill-opacity="0.0" d="m358.2021 253.03412l265.00787 0l0 87.71655l-265.00787 0z" fill-rule="evenodd"/><path fill="#ffffff" d="m432.97165 308.9585q0 2.609375 -0.671875 4.734375q-0.671875 2.109375 -1.78125 3.75q-1.109375 1.625 -2.609375 2.765625q-1.484375 1.140625 -3.0625 1.859375q-1.5625 0.71875 -3.1875 1.0625q-1.625 0.34375 -3.078125 0.34375l-32.671875 0l0 -10.78125l32.671875 0q1.765625 0 2.6875 -0.96875q0.921875 -0.984375 0.921875 -2.765625q0 -0.890625 -0.265625 -1.59375q-0.25 -0.703125 -0.703125 -1.171875q-0.4375 -0.484375 -1.109375 -0.75q-0.671875 -0.28125 -1.53125 -0.28125l-18.6875 0q-2.171875 0 -4.671875 -0.765625q-2.484375 -0.78125 -4.65625 -2.5q-2.15625 -1.734375 -3.59375 -4.53125q-1.4375 -2.796875 -1.4375 -6.78125q0 -3.984375 1.4375 -6.765625q1.4375 -2.78125 3.59375 -4.515625q2.15625 -1.75 4.65625 -2.515625q2.5 -0.78125 4.671875 -0.78125l28.984375 0l0 10.78125l-28.984375 0q-1.734375 0 -2.65625 1.0q-0.921875 1.0 -0.921875 2.796875q0 1.8125 0.90625 2.78125q0.921875 0.953125 2.671875 0.953125l18.6875 0l0.078125 0q1.453125 0.03125 3.0625 0.390625q1.609375 0.359375 3.1875 1.109375q1.59375 0.75 3.046875 1.90625q1.453125 1.15625 2.578125 2.796875q1.125 1.625 1.78125 3.734375q0.65625 2.09375 0.65625 4.703125zm42.1875 -9.40625q0 1.890625 -0.65625 4.0625q-0.65625 2.15625 -2.15625 4.046875q-1.5 1.875 -3.90625 3.140625q-2.40625 1.265625 -5.796875 1.265625l-15.984375 0l0 -10.375l15.984375 0q1.0625 0 1.59375 -0.59375q0.546875 -0.609375 0.546875 -1.609375q0 -1.0 -0.609375 -1.53125q-0.59375 -0.546875 -1.53125 -0.546875l-14.65625 0q-1.0625 0 -1.609375 0.609375q-0.53125 0.59375 -0.53125 1.59375l0 11.34375q0 1.03125 0.59375 1.578125q0.609375 0.53125 1.609375 0.53125l15.921875 0l0 10.40625l-15.984375 0q-1.890625 0 -4.0625 -0.65625q-2.15625 -0.65625 -4.046875 -2.15625q-1.875 -1.5 -3.140625 -3.90625q-1.265625 -2.40625 -1.265625 -5.796875l0 -11.40625q0 -1.890625 0.65625 -4.046875q0.65625 -2.171875 2.15625 -4.046875q1.5 -1.890625 3.90625 -3.15625q2.40625 -1.265625 5.796875 -1.265625l14.65625 0q1.890625 0 4.046875 0.65625q2.171875 0.65625 4.046875 2.15625q1.890625 1.5 3.15625 3.90625q1.265625 2.40625 1.265625 5.796875zm42.90628 23.921875l-10.7812805 0l0 -20.078125q0 -1.3125 -0.4375 -2.328125q-0.4375 -1.03125 -1.1875 -1.75q-0.75 -0.71875 -1.78125 -1.109375q-1.015625 -0.390625 -2.234375 -0.390625l-12.890625 0l0 25.65625l-10.78125 0l0 -31.078125q0 -1.109375 0.40625 -2.09375q0.421875 -0.984375 1.171875 -1.703125q0.75 -0.734375 1.734375 -1.140625q1.0 -0.421875 2.109375 -0.421875l18.3125 0q1.65625 0 3.5 0.375q1.84375 0.375 3.65625 1.203125q1.8125 0.828125 3.4687805 2.109375q1.65625 1.28125 2.9375 3.125q1.296875 1.828125 2.046875 4.21875q0.75 2.375 0.75 5.328125l0 20.078125zm39.78125 -12.734375q0 2.296875 -0.59375 4.171875q-0.59375 1.859375 -1.59375 3.296875q-0.984375 1.421875 -2.28125 2.4375q-1.296875 1.0 -2.703125 1.625q-1.40625 0.609375 -2.84375 0.90625q-1.421875 0.296875 -2.71875 0.296875l-23.328125 0l0 -10.78125l23.265625 0q1.109375 0 1.5625 -0.453125q0.453125 -0.453125 0.453125 -1.46875q-0.09375 -1.953125 -1.953125 -1.953125l-12.59375 0q-3.0 0 -5.140625 -1.0625q-2.140625 -1.078125 -3.484375 -2.6875q-1.34375 -1.609375 -1.9375 -3.453125q-0.578125 -1.859375 -0.578125 -3.46875q0 -3.046875 1.109375 -5.171875q1.109375 -2.125 2.78125 -3.453125q1.6875 -1.328125 3.625 -1.90625q1.9375 -0.578125 3.625 -0.578125l21.296875 0l0 10.78125l-21.234375 0q-0.375 0 -0.4375 0.03125q-0.0625 0.015625 -0.015625 -0.046875q0.046875 -0.0625 0.03125 0q0 0.046875 0 0.171875q0.015625 0.171875 0 0.15625q-0.015625 -0.03125 -0.09375 -0.0625q-0.0625 -0.046875 0.0625 -0.03125q0.140625 0 0.390625 0l12.59375 0q3.453125 0 5.90625 1.265625q2.453125 1.265625 3.96875 3.1875q1.515625 1.90625 2.1875 4.125q0.671875 2.203125 0.671875 4.125zm42.03125 -11.1875q0 1.890625 -0.65625 4.0625q-0.65625 2.15625 -2.15625 4.046875q-1.5 1.875 -3.90625 3.140625q-2.40625 1.265625 -5.796875 1.265625l-15.984375 0l0 -10.375l15.984375 0q1.0625 0 1.59375 -0.59375q0.546875 -0.609375 0.546875 -1.609375q0 -1.0 -0.609375 -1.53125q-0.59375 -0.546875 -1.53125 -0.546875l-14.65625 0q-1.0625 0 -1.609375 0.609375q-0.53125 0.59375 -0.53125 1.59375l0 11.34375q0 1.03125 0.59375 1.578125q0.609375 0.53125 1.609375 0.53125l15.921875 0l0 10.40625l-15.984375 0q-1.890625 0 -4.0625 -0.65625q-2.15625 -0.65625 -4.046875 -2.15625q-1.875 -1.5 -3.140625 -3.90625q-1.265625 -2.40625 -1.265625 -5.796875l0 -11.40625q0 -1.890625 0.65625 -4.046875q0.65625 -2.171875 2.15625 -4.046875q1.5 -1.890625 3.90625 -3.15625q2.40625 -1.265625 5.796875 -1.265625l14.65625 0q1.890625 0 4.046875 0.65625q2.171875 0.65625 4.046875 2.15625q1.890625 1.5 3.15625 3.90625q1.265625 2.40625 1.265625 5.796875z" fill-rule="nonzero"/><path fill="#000000" fill-opacity="0.0" d="m400.24933 334.35434l180.91339 0l0 94.11023l-180.91339 0z" fill-rule="evenodd"/><path fill="#ffffff" d="m439.10947 404.79434q-1.765625 0 -2.703125 -0.9375q-0.9375 -0.9375 -0.9375 -2.6875l0 -7.625q0 -1.78125 0.9375 -2.703125q0.9375 -0.921875 2.703125 -0.921875l5.0 0l0 -18.859375l-5.0 0q-1.765625 0 -2.703125 -0.921875q-0.9375 -0.921875 -0.9375 -2.703125l0 -7.75q0 -1.75 0.9375 -2.6875q0.9375 -0.9375 2.703125 -0.9375l27.25 0q1.765625 0 2.703125 0.9375q0.9375 0.9375 0.9375 2.6875l0 7.75q0 1.78125 -0.9375 2.703125q-0.9375 0.921875 -2.703125 0.921875l-4.875 0l0 18.859375l4.875 0q1.765625 0 2.703125 0.921875q0.9375 0.921875 0.9375 2.703125l0 7.625q0 1.75 -0.9375 2.6875q-0.9375 0.9375 -2.703125 0.9375l-27.25 0zm68.09494 0l-15.625 0q-8.484375 0 -12.78125 -3.546875q-4.28125 -3.5625 -4.28125 -10.84375l0 -19.890625q0 -7.28125 4.28125 -10.859375q4.296875 -3.59375 12.78125 -3.59375l15.625 0q1.75 0 2.6875 0.9375q0.9375 0.9375 0.9375 2.6875l0 7.75q0 1.78125 -0.9375 2.703125q-0.9375 0.921875 -2.6875 0.921875l-12.875 0q-1.5 0 -2.046875 0.453125q-0.53125 0.453125 -0.53125 1.421875l0 15.234375q0 0.9375 0.515625 1.34375q0.53125 0.40625 2.0625 0.40625l12.875 0q1.75 0 2.6875 0.921875q0.9375 0.921875 0.9375 2.703125l0 7.625q0 1.75 -0.9375 2.6875q-0.9375 0.9375 -2.6875 0.9375z" fill-rule="nonzero"/><path fill="#ffffff" d="m550.1151 392.05997q0 2.296875 -0.59375 4.171875q-0.59375 1.859375 -1.59375 3.296875q-0.984375 1.421875 -2.28125 2.4375q-1.296875 1.0 -2.703125 1.625q-1.40625 0.609375 -2.84375 0.90625q-1.421875 0.296875 -2.71875 0.296875l-23.328125 0l0 -10.78125l23.265625 0q1.109375 0 1.5625 -0.453125q0.453125 -0.453125 0.453125 -1.46875q-0.09375 -1.953125 -1.953125 -1.953125l-12.59375 0q-3.0 0 -5.140625 -1.0625q-2.140625 -1.078125 -3.484375 -2.6875q-1.34375 -1.609375 -1.9375 -3.453125q-0.578125 -1.859375 -0.578125 -3.46875q0 -3.046875 1.109375 -5.171875q1.109375 -2.125 2.78125 -3.453125q1.6875 -1.328125 3.625 -1.90625q1.9375 -0.578125 3.625 -0.578125l21.296875 0l0 10.78125l-21.234375 0q-0.375 0 -0.4375 0.03125q-0.0625 0.015625 -0.015625 -0.046875q0.046875 -0.0625 0.03125 0q0 0.046875 0 0.171875q0.015625 0.171875 0 0.15625q-0.015625 -0.03125 -0.09375 -0.0625q-0.0625 -0.046875 0.0625 -0.03125q0.140625 0 0.390625 0l12.59375 0q3.453125 0 5.90625 1.265625q2.453125 1.265625 3.96875 3.1875q1.515625 1.90625 2.1875 4.125q0.671875 2.203125 0.671875 4.125z" fill-rule="nonzero"/></g></svg>